<?xml version="1.0" encoding="utf-8" standalone="yes"?>
<svg xmlns="http://www.w3.org/2000/svg" xmlns:xlink="http://www.w3.org/1999/xlink" version="1.1" viewBox="0.0 0.0 559.0971128608924 339.26509186351706" fill="none" stroke="none" stroke-linecap="square" stroke-miterlimit="10">
<clipPath id="p.0">
<path d="m0 0l559.0971 0l0 339.2651l-559.0971 0l0 -339.2651z" clip-rule="nonzero"/>
</clipPath>
<g clip-path="url(#p.0)">
<path fill="#000000" fill-opacity="0.0" d="m0 0l559.0971 0l0 339.2651l-559.0971 0z" fill-rule="evenodd"/>
<path fill="#cfe2f3" d="m6.7086616 170.50656l0 0c0 -45.38302 37.791397 -82.173225 84.40945 -82.173225l0 0c22.38678 0 43.85665 8.657509 59.6865 24.067978c15.829834 15.410469 24.722946 36.311546 24.722946 58.105247l0 0c0 45.383026 -37.791397 82.17323 -84.40945 82.17323l0 0c-46.618053 0 -84.40945 -36.790207 -84.40945 -82.17323z" fill-rule="evenodd"/>
<path stroke="#000000" stroke-width="1.0" stroke-linejoin="round" stroke-linecap="butt" d="m6.7086616 170.50656l0 0c0 -45.38302 37.791397 -82.173225 84.40945 -82.173225l0 0c22.38678 0 43.85665 8.657509 59.6865 24.067978c15.829834 15.410469 24.722946 36.311546 24.722946 58.105247l0 0c0 45.383026 -37.791397 82.17323 -84.40945 82.17323l0 0c-46.618053 0 -84.40945 -36.790207 -84.40945 -82.17323z" fill-rule="evenodd"/>
<path fill="#000000" d="m51.603493 172.66093l1.796875 0.453125q-0.5625 2.21875 -2.03125 3.390625q-1.46875 1.15625 -3.59375 1.15625q-2.203125 0 -3.578125 -0.890625q-1.375 -0.90625 -2.09375 -2.59375q-0.71875 -1.703125 -0.71875 -3.65625q0 -2.125 0.796875 -3.703125q0.8125 -1.578125 2.3125 -2.390625q1.5 -0.828125 3.296875 -0.828125q2.046875 0 3.4375 1.046875q1.390625 1.03125 1.9375 2.90625l-1.765625 0.421875q-0.46875 -1.484375 -1.375 -2.15625q-0.90625 -0.6875 -2.265625 -0.6875q-1.5625 0 -2.625 0.75q-1.046875 0.75 -1.484375 2.03125q-0.421875 1.265625 -0.421875 2.609375q0 1.734375 0.5 3.03125q0.515625 1.28125 1.578125 1.921875q1.078125 0.640625 2.3125 0.640625q1.515625 0 2.5625 -0.859375q1.046875 -0.875 1.421875 -2.59375zm2.9260712 -0.15625q0 -2.734375 1.53125 -4.0625q1.265625 -1.09375 3.09375 -1.09375q2.03125 0 3.3125 1.34375q1.296875 1.328125 1.296875 3.671875q0 1.90625 -0.578125 3.0q-0.5625 1.078125 -1.65625 1.6875q-1.078125 0.59375 -2.375 0.59375q-2.0625 0 -3.34375 -1.328125q-1.28125 -1.328125 -1.28125 -3.8125zm1.71875 0q0 1.890625 0.828125 2.828125q0.828125 0.9375 2.078125 0.9375q1.25 0 2.0625 -0.9375q0.828125 -0.953125 0.828125 -2.890625q0 -1.828125 -0.828125 -2.765625q-0.828125 -0.9375 -2.0625 -0.9375q-1.25 0 -2.078125 0.9375q-0.828125 0.9375 -0.828125 2.828125zm9.281967 4.921875l0 -9.859375l1.5 0l0 1.390625q0.453125 -0.71875 1.21875 -1.15625q0.78125 -0.453125 1.765625 -0.453125q1.09375 0 1.796875 0.453125q0.703125 0.453125 0.984375 1.28125q1.171875 -1.734375 3.046875 -1.734375q1.46875 0 2.25 0.8125q0.796875 0.8125 0.796875 2.5l0 6.765625l-1.671875 0l0 -6.203125q0 -1.0 -0.15625 -1.4375q-0.15625 -0.453125 -0.59375 -0.71875q-0.421875 -0.265625 -1.0 -0.265625q-1.03125 0 -1.71875 0.6875q-0.6875 0.6875 -0.6875 2.21875l0 5.71875l-1.671875 0l0 -6.40625q0 -1.109375 -0.40625 -1.65625q-0.40625 -0.5625 -1.34375 -0.5625q-0.703125 0 -1.3125 0.375q-0.59375 0.359375 -0.859375 1.078125q-0.265625 0.71875 -0.265625 2.0625l0 5.109375l-1.671875 0zm15.540802 3.78125l0 -13.640625l1.53125 0l0 1.28125q0.53125 -0.75 1.203125 -1.125q0.6875 -0.375 1.640625 -0.375q1.265625 0 2.234375 0.65625q0.96875 0.640625 1.453125 1.828125q0.5 1.1875 0.5 2.59375q0 1.515625 -0.546875 2.734375q-0.546875 1.203125 -1.578125 1.84375q-1.03125 0.640625 -2.171875 0.640625q-0.84375 0 -1.515625 -0.34375q-0.65625 -0.359375 -1.078125 -0.890625l0 4.796875l-1.671875 0zm1.515625 -8.65625q0 1.90625 0.765625 2.8125q0.78125 0.90625 1.875 0.90625q1.109375 0 1.890625 -0.9375q0.796875 -0.9375 0.796875 -2.921875q0 -1.875 -0.78125 -2.8125q-0.765625 -0.9375 -1.84375 -0.9375q-1.0625 0 -1.890625 1.0q-0.8125 1.0 -0.8125 2.890625zm8.235092 -0.046875q0 -2.734375 1.53125 -4.0625q1.265625 -1.09375 3.09375 -1.09375q2.03125 0 3.3125 1.34375q1.296875 1.328125 1.296875 3.671875q0 1.90625 -0.578125 3.0q-0.5625 1.078125 -1.65625 1.6875q-1.078125 0.59375 -2.375 0.59375q-2.0625 0 -3.34375 -1.328125q-1.28125 -1.328125 -1.28125 -3.8125zm1.71875 0q0 1.890625 0.828125 2.828125q0.828125 0.9375 2.078125 0.9375q1.25 0 2.0625 -0.9375q0.828125 -0.953125 0.828125 -2.890625q0 -1.828125 -0.828125 -2.765625q-0.828125 -0.9375 -2.0625 -0.9375q-1.25 0 -2.078125 0.9375q-0.828125 0.9375 -0.828125 2.828125zm9.281967 4.921875l0 -9.859375l1.5 0l0 1.40625q1.09375 -1.625 3.140625 -1.625q0.890625 0 1.640625 0.328125q0.75 0.3125 1.109375 0.84375q0.375 0.515625 0.53125 1.21875q0.09375 0.46875 0.09375 1.625l0 6.0625l-1.671875 0l0 -6.0q0 -1.015625 -0.203125 -1.515625q-0.1875 -0.515625 -0.6875 -0.8125q-0.5 -0.296875 -1.171875 -0.296875q-1.0625 0 -1.84375 0.671875q-0.765625 0.671875 -0.765625 2.578125l0 5.375l-1.671875 0zm17.125717 -3.171875l1.71875 0.21875q-0.40625 1.5 -1.515625 2.34375q-1.09375 0.828125 -2.8125 0.828125q-2.15625 0 -3.421875 -1.328125q-1.265625 -1.328125 -1.265625 -3.734375q0 -2.484375 1.265625 -3.859375q1.28125 -1.375 3.328125 -1.375q1.984375 0 3.234375 1.34375q1.25 1.34375 1.25 3.796875q0 0.140625 -0.015625 0.4375l-7.34375 0q0.09375 1.625 0.921875 2.484375q0.828125 0.859375 2.0625 0.859375q0.90625 0 1.546875 -0.46875q0.65625 -0.484375 1.046875 -1.546875zm-5.484375 -2.703125l5.5 0q-0.109375 -1.234375 -0.625 -1.859375q-0.796875 -0.96875 -2.078125 -0.96875q-1.140625 0 -1.9375 0.78125q-0.78125 0.765625 -0.859375 2.046875zm9.110092 5.875l0 -9.859375l1.5 0l0 1.40625q1.09375 -1.625 3.140625 -1.625q0.8906174 0 1.6406174 0.328125q0.75 0.3125 1.109375 0.84375q0.375 0.515625 0.53125 1.21875q0.09375 0.46875 0.09375 1.625l0 6.0625l-1.671875 0l0 -6.0q0 -1.015625 -0.203125 -1.515625q-0.1875 -0.515625 -0.6875 -0.8125q-0.49999237 -0.296875 -1.1718674 -0.296875q-1.0625 0 -1.84375 0.671875q-0.765625 0.671875 -0.765625 2.578125l0 5.375l-1.671875 0zm14.03196 -1.5l0.234375 1.484375q-0.703125 0.140625 -1.265625 0.140625q-0.90625 0 -1.40625 -0.28125q-0.5 -0.296875 -0.703125 -0.75q-0.203125 -0.46875 -0.203125 -1.984375l0 -5.65625l-1.234375 0l0 -1.3125l1.234375 0l0 -2.4375l1.65625 -1.0l0 3.4375l1.6875 0l0 1.3125l-1.6875 0l0 5.75q0 0.71875 0.078125 0.921875q0.09375 0.203125 0.296875 0.328125q0.203125 0.125 0.578125 0.125q0.265625 0 0.734375 -0.078125z" fill-rule="nonzero"/>
<path fill="#cfe2f3" d="m231.43045 7.8293962l140.8819 0l0 80.50394l-140.8819 0z" fill-rule="evenodd"/>
<path stroke="#000000" stroke-width="1.0" stroke-linejoin="round" stroke-linecap="butt" d="m231.43045 7.8293962l140.8819 0l0 80.50394l-140.8819 0z" fill-rule="evenodd"/>
<path fill="#000000" d="m275.91452 55.00136l5.234375 -13.59375l1.9375 0l5.5625 13.59375l-2.046875 0l-1.59375 -4.125l-5.6875 0l-1.484375 4.125l-1.921875 0zm3.921875 -5.578125l4.609375 0l-1.40625 -3.78125q-0.65625 -1.703125 -0.96875 -2.8125q-0.265625 1.3125 -0.734375 2.59375l-1.5 4.0zm16.240448 1.96875l1.640625 0.21875q-0.265625 1.6875 -1.375 2.65625q-1.109375 0.953125 -2.734375 0.953125q-2.015625 0 -3.25 -1.3125q-1.21875 -1.328125 -1.21875 -3.796875q0 -1.59375 0.515625 -2.78125q0.53125 -1.203125 1.609375 -1.796875q1.09375 -0.609375 2.359375 -0.609375q1.609375 0 2.625 0.8125q1.015625 0.8125 1.3125 2.3125l-1.625 0.25q-0.234375 -1.0 -0.828125 -1.5q-0.59375 -0.5 -1.421875 -0.5q-1.265625 0 -2.0625 0.90625q-0.78125 0.90625 -0.78125 2.859375q0 1.984375 0.765625 2.890625q0.765625 0.890625 1.984375 0.890625q0.984375 0 1.640625 -0.59375q0.65625 -0.609375 0.84375 -1.859375zm6.546875 2.109375l0.234375 1.484375q-0.703125 0.140625 -1.265625 0.140625q-0.90625 0 -1.40625 -0.28125q-0.5 -0.296875 -0.703125 -0.75q-0.203125 -0.46875 -0.203125 -1.984375l0 -5.65625l-1.234375 0l0 -1.3125l1.234375 0l0 -2.4375l1.65625 -1.0l0 3.4375l1.6875 0l0 1.3125l-1.6875 0l0 5.75q0 0.71875 0.078125 0.921875q0.09375 0.203125 0.296875 0.328125q0.203125 0.125 0.578125 0.125q0.265625 0 0.734375 -0.078125zm1.5426636 -10.1875l0 -1.90625l1.671875 0l0 1.90625l-1.671875 0zm0 11.6875l0 -9.859375l1.671875 0l0 9.859375l-1.671875 0zm3.5042114 -4.921875q0 -2.734375 1.53125 -4.0625q1.265625 -1.09375 3.09375 -1.09375q2.03125 0 3.3125 1.34375q1.296875 1.328125 1.296875 3.671875q0 1.90625 -0.578125 3.0q-0.5625 1.078125 -1.65625 1.6875q-1.078125 0.59375 -2.375 0.59375q-2.0625 0 -3.34375 -1.328125q-1.28125 -1.328125 -1.28125 -3.8125zm1.71875 0q0 1.890625 0.828125 2.828125q0.828125 0.9375 2.078125 0.9375q1.25 0 2.0625 -0.9375q0.828125 -0.953125 0.828125 -2.890625q0 -1.828125 -0.828125 -2.765625q-0.828125 -0.9375 -2.0625 -0.9375q-1.25 0 -2.078125 0.9375q-0.828125 0.9375 -0.828125 2.828125zm9.281952 4.921875l0 -9.859375l1.5 0l0 1.40625q1.09375 -1.625 3.140625 -1.625q0.890625 0 1.640625 0.328125q0.75 0.3125 1.109375 0.84375q0.375 0.515625 0.53125 1.21875q0.09375 0.46875 0.09375 1.625l0 6.0625l-1.671875 0l0 -6.0q0 -1.015625 -0.203125 -1.515625q-0.1875 -0.515625 -0.6875 -0.8125q-0.5 -0.296875 -1.171875 -0.296875q-1.0625 0 -1.84375 0.671875q-0.765625 0.671875 -0.765625 2.578125l0 5.375l-1.671875 0z" fill-rule="nonzero"/>
<path fill="#cfe2f3" d="m414.37534 130.2546l140.88187 0l0 80.50394l-140.88187 0z" fill-rule="evenodd"/>
<path stroke="#000000" stroke-width="1.0" stroke-linejoin="round" stroke-linecap="butt" d="m414.37534 130.2546l140.88187 0l0 80.50394l-140.88187 0z" fill-rule="evenodd"/>
<path fill="#000000" d="m451.05795 177.42656l0 -13.59375l6.03125 0q1.8125 0 2.75 0.359375q0.953125 0.359375 1.515625 1.296875q0.5625 0.921875 0.5625 2.046875q0 1.453125 -0.9375 2.453125q-0.921875 0.984375 -2.890625 1.25q0.71875 0.34375 1.09375 0.671875q0.78125 0.734375 1.484375 1.8125l2.375 3.703125l-2.265625 0l-1.796875 -2.828125q-0.796875 -1.21875 -1.3125 -1.875q-0.5 -0.65625 -0.90625 -0.90625q-0.40625 -0.265625 -0.8125 -0.359375q-0.3125 -0.078125 -1.015625 -0.078125l-2.078125 0l0 6.046875l-1.796875 0zm1.796875 -7.59375l3.859375 0q1.234375 0 1.921875 -0.25q0.703125 -0.265625 1.0625 -0.828125q0.375 -0.5625 0.375 -1.21875q0 -0.96875 -0.703125 -1.578125q-0.703125 -0.625 -2.21875 -0.625l-4.296875 0l0 4.5zm18.176086 4.421875l1.71875 0.21875q-0.40625 1.5 -1.515625 2.34375q-1.09375 0.828125 -2.8125 0.828125q-2.15625 0 -3.421875 -1.328125q-1.265625 -1.328125 -1.265625 -3.734375q0 -2.484375 1.265625 -3.859375q1.28125 -1.375 3.328125 -1.375q1.984375 0 3.234375 1.34375q1.25 1.34375 1.25 3.796875q0 0.140625 -0.015625 0.4375l-7.34375 0q0.09375 1.625 0.921875 2.484375q0.828125 0.859375 2.0625 0.859375q0.90625 0 1.546875 -0.46875q0.65625 -0.484375 1.046875 -1.546875zm-5.484375 -2.703125l5.5 0q-0.109375 -1.234375 -0.625 -1.859375q-0.796875 -0.96875 -2.078125 -0.96875q-1.140625 0 -1.9375 0.78125q-0.78125 0.765625 -0.859375 2.046875zm15.500702 5.875l0 -1.25q-0.9375 1.46875 -2.75 1.46875q-1.171875 0 -2.171875 -0.640625q-0.984375 -0.65625 -1.53125 -1.8125q-0.53125 -1.171875 -0.53125 -2.6875q0 -1.46875 0.484375 -2.671875q0.5 -1.203125 1.46875 -1.84375q0.984375 -0.640625 2.203125 -0.640625q0.890625 0 1.578125 0.375q0.703125 0.375 1.140625 0.984375l0 -4.875l1.65625 0l0 13.59375l-1.546875 0zm-5.28125 -4.921875q0 1.890625 0.796875 2.828125q0.8125 0.9375 1.890625 0.9375q1.09375 0 1.859375 -0.890625q0.765625 -0.890625 0.765625 -2.734375q0 -2.015625 -0.78125 -2.953125q-0.78125 -0.953125 -1.921875 -0.953125q-1.109375 0 -1.859375 0.90625q-0.75 0.90625 -0.75 2.859375zm15.719482 4.921875l0 -1.453125q-1.140625 1.671875 -3.125 1.671875q-0.859375 0 -1.625 -0.328125q-0.75 -0.34375 -1.125 -0.84375q-0.359375 -0.5 -0.515625 -1.234375q-0.09375 -0.5 -0.09375 -1.5625l0 -6.109375l1.671875 0l0 5.46875q0 1.3125 0.09375 1.765625q0.15625 0.65625 0.671875 1.03125q0.515625 0.375 1.265625 0.375q0.75 0 1.40625 -0.375q0.65625 -0.390625 0.921875 -1.046875q0.28125 -0.671875 0.28125 -1.9375l0 -5.28125l1.671875 0l0 9.859375l-1.5 0zm10.360077 -3.609375l1.640625 0.21875q-0.265625 1.6875 -1.375 2.65625q-1.109375 0.953125 -2.734375 0.953125q-2.015625 0 -3.25 -1.3125q-1.21875 -1.328125 -1.21875 -3.796875q0 -1.59375 0.515625 -2.78125q0.53125 -1.203125 1.609375 -1.796875q1.09375 -0.609375 2.359375 -0.609375q1.609375 0 2.625 0.8125q1.015625 0.8125 1.3125 2.3125l-1.625 0.25q-0.234375 -1.0 -0.828125 -1.5q-0.59375 -0.5 -1.421875 -0.5q-1.265625 0 -2.0625 0.90625q-0.78125 0.90625 -0.78125 2.859375q0 1.984375 0.765625 2.890625q0.765625 0.890625 1.984375 0.890625q0.984375 0 1.640625 -0.59375q0.65625 -0.609375 0.84375 -1.859375zm9.640625 0.4375l1.7187805 0.21875q-0.40625 1.5 -1.5156555 2.34375q-1.09375 0.828125 -2.8125 0.828125q-2.15625 0 -3.421875 -1.328125q-1.265625 -1.328125 -1.265625 -3.734375q0 -2.484375 1.265625 -3.859375q1.28125 -1.375 3.328125 -1.375q1.984375 0 3.2344055 1.34375q1.25 1.34375 1.25 3.796875q0 0.140625 -0.015625 0.4375l-7.3437805 0q0.09375 1.625 0.921875 2.484375q0.828125 0.859375 2.0625 0.859375q0.90625 0 1.546875 -0.46875q0.65625 -0.484375 1.046875 -1.546875zm-5.484375 -2.703125l5.5 0q-0.109375 -1.234375 -0.625 -1.859375q-0.796875 -0.96875 -2.078125 -0.96875q-1.140625 0 -1.9375 0.78125q-0.78125 0.765625 -0.859375 2.046875zm9.094452 5.875l0 -9.859375l1.5 0l0 1.5q0.578125 -1.046875 1.0625 -1.375q0.484375 -0.34375 1.078125 -0.34375q0.84375 0 1.71875 0.546875l-0.578125 1.546875q-0.609375 -0.359375 -1.234375 -0.359375q-0.546875 0 -0.984375 0.328125q-0.421875 0.328125 -0.609375 0.90625q-0.28125 0.890625 -0.28125 1.953125l0 5.15625l-1.671875 0z" fill-rule="nonzero"/>
<path fill="#cfe2f3" d="m239.95276 252.6798l140.8819 0l0 80.50392l-140.8819 0z" fill-rule="evenodd"/>
<path stroke="#000000" stroke-width="1.0" stroke-linejoin="round" stroke-linecap="butt" d="m239.95276 252.6798l140.8819 0l0 80.50392l-140.8819 0z" fill-rule="evenodd"/>
<path fill="#000000" d="m288.95758 295.47675l1.6875 -0.140625q0.125 1.015625 0.5625 1.671875q0.4375 0.65625 1.359375 1.0625q0.9375 0.40625 2.09375 0.40625q1.03125 0 1.8125 -0.3125q0.796875 -0.3125 1.1875 -0.84375q0.390625 -0.53125 0.390625 -1.15625q0 -0.640625 -0.375 -1.109375q-0.375 -0.484375 -1.234375 -0.8125q-0.546875 -0.21875 -2.421875 -0.65625q-1.875 -0.453125 -2.625 -0.859375q-0.96875 -0.515625 -1.453125 -1.265625q-0.46875 -0.75 -0.46875 -1.6875q0 -1.03125 0.578125 -1.921875q0.59375 -0.90625 1.703125 -1.359375q1.125 -0.46875 2.5 -0.46875q1.515625 0 2.671875 0.484375q1.15625 0.484375 1.765625 1.4375q0.625 0.9375 0.671875 2.140625l-1.71875 0.125q-0.140625 -1.28125 -0.953125 -1.9375q-0.796875 -0.671875 -2.359375 -0.671875q-1.625 0 -2.375 0.609375q-0.75 0.59375 -0.75 1.4375q0 0.734375 0.53125 1.203125q0.515625 0.46875 2.703125 0.96875q2.203125 0.5 3.015625 0.875q1.1875 0.546875 1.75 1.390625q0.578125 0.828125 0.578125 1.921875q0 1.09375 -0.625 2.0625q-0.625 0.953125 -1.796875 1.484375q-1.15625 0.53125 -2.609375 0.53125q-1.84375 0 -3.09375 -0.53125q-1.25 -0.546875 -1.96875 -1.625q-0.703125 -1.078125 -0.734375 -2.453125zm16.490448 2.875l0.234375 1.484375q-0.703125 0.140625 -1.265625 0.140625q-0.90625 0 -1.40625 -0.28125q-0.5 -0.296875 -0.703125 -0.75q-0.203125 -0.46875 -0.203125 -1.984375l0 -5.65625l-1.234375 0l0 -1.3125l1.234375 0l0 -2.4375l1.65625 -1.0l0 3.4375l1.6875 0l0 1.3125l-1.6875 0l0 5.75q0 0.71875 0.078125 0.921875q0.09375 0.203125 0.296875 0.328125q0.203125 0.125 0.578125 0.125q0.265625 0 0.734375 -0.078125zm0.9020386 -3.421875q0 -2.734375 1.53125 -4.0625q1.265625 -1.09375 3.09375 -1.09375q2.03125 0 3.3125 1.34375q1.296875 1.328125 1.296875 3.671875q0 1.90625 -0.578125 3.0q-0.5625 1.078125 -1.65625 1.6875q-1.078125 0.59375 -2.375 0.59375q-2.0625 0 -3.34375 -1.328125q-1.28125 -1.328125 -1.28125 -3.8125zm1.71875 0q0 1.890625 0.828125 2.828125q0.828125 0.9375 2.078125 0.9375q1.25 0 2.0625 -0.9375q0.828125 -0.953125 0.828125 -2.890625q0 -1.828125 -0.828125 -2.765625q-0.828125 -0.9375 -2.0625 -0.9375q-1.25 0 -2.078125 0.9375q-0.828125 0.9375 -0.828125 2.828125zm9.266357 4.921875l0 -9.859375l1.5 0l0 1.5q0.578125 -1.046875 1.0625 -1.375q0.484375 -0.34375 1.078125 -0.34375q0.84375 0 1.71875 0.546875l-0.578125 1.546875q-0.609375 -0.359375 -1.234375 -0.359375q-0.546875 0 -0.984375 0.328125q-0.421875 0.328125 -0.609375 0.90625q-0.28125 0.890625 -0.28125 1.953125l0 5.15625l-1.671875 0zm12.978302 -3.171875l1.71875 0.21875q-0.40625 1.5 -1.515625 2.34375q-1.09375 0.828125 -2.8125 0.828125q-2.15625 0 -3.421875 -1.328125q-1.265625 -1.328125 -1.265625 -3.734375q0 -2.484375 1.265625 -3.859375q1.28125 -1.375 3.328125 -1.375q1.984375 0 3.234375 1.34375q1.25 1.34375 1.25 3.796875q0 0.140625 -0.015625 0.4375l-7.34375 0q0.09375 1.625 0.921875 2.484375q0.828125 0.859375 2.0625 0.859375q0.90625 0 1.546875 -0.46875q0.65625 -0.484375 1.046875 -1.546875zm-5.484375 -2.703125l5.5 0q-0.109375 -1.234375 -0.625 -1.859375q-0.796875 -0.96875 -2.078125 -0.96875q-1.140625 0 -1.9375 0.78125q-0.78125 0.765625 -0.859375 2.046875z" fill-rule="nonzero"/>
<path fill="#000000" fill-opacity="0.0" d="m150.80461 112.40131l80.62991 -64.31496" fill-rule="evenodd"/>
<path stroke="#000000" stroke-width="1.0" stroke-linejoin="round" stroke-linecap="butt" d="m150.80461 112.40132l75.93935 -60.573505" fill-rule="evenodd"/>
<path fill="#000000" stroke="#000000" stroke-width="1.0" stroke-linecap="butt" d="m227.77394 53.119076l2.5177307 -4.121113l-4.5776978 1.5385933z" fill-rule="evenodd"/>
<path fill="#000000" fill-opacity="0.0" d="m372.31235 48.081364l112.50394 82.17323" fill-rule="evenodd"/>
<path stroke="#000000" stroke-width="1.0" stroke-linejoin="round" stroke-linecap="butt" d="m372.31235 48.081364l107.65875 78.63429" fill-rule="evenodd"/>
<path fill="#000000" stroke="#000000" stroke-width="1.0" stroke-linecap="butt" d="m478.99686 128.04948l4.6388855 1.3428497l-2.6904297 -4.0105133z" fill-rule="evenodd"/>
<path fill="#000000" fill-opacity="0.0" d="m484.81628 210.75853l-103.968506 82.17323" fill-rule="evenodd"/>
<path stroke="#000000" stroke-width="1.0" stroke-linejoin="round" stroke-linecap="butt" d="m484.81628 210.75853l-99.26126 78.452774" fill-rule="evenodd"/>
<path fill="#000000" stroke="#000000" stroke-width="1.0" stroke-linecap="butt" d="m384.53082 287.91544l-2.5361328 4.109833l4.5845337 -1.5180969z" fill-rule="evenodd"/>
<path fill="#000000" fill-opacity="0.0" d="m239.95276 292.93176l-89.133865 -64.31497" fill-rule="evenodd"/>
<path stroke="#000000" stroke-width="1.0" stroke-linejoin="round" stroke-linecap="butt" d="m239.95276 292.93176l-84.26825 -60.804153" fill-rule="evenodd"/>
<path fill="#000000" stroke="#000000" stroke-width="1.0" stroke-linecap="butt" d="m156.651 230.78816l-4.646591 -1.3159485l2.713623 3.9948425z" fill-rule="evenodd"/>
<path fill="#000000" fill-opacity="0.0" d="m128.34729 80.04149l70.897644 -59.622047l21.448822 25.480316l-70.897644 59.622047z" fill-rule="evenodd"/>
<path fill="#000000" d="m155.84988 88.74179l-0.6741791 -0.8008957q0.19699097 1.4471741 -0.9749298 2.4327164q-0.76535034 0.64362335 -1.7513275 0.7582474q-0.9859772 0.11462402 -1.9786682 -0.33676147q-0.98072815 -0.46144104 -1.7957764 -1.4296875q-0.8049774 -0.9562912 -1.1380463 -1.9827957q-0.33117676 -1.0485153 -0.039505005 -1.9879379q0.2816162 -0.95137787 1.0708771 -1.6151123q0.5740051 -0.48271942 1.2177277 -0.6157379q0.65567017 -0.14308167 1.2627716 0.020088196l-2.646408 -3.143814l1.0762634 -0.90509033l7.375702 8.762024l-1.0045013 0.8447571zm-6.062744 -0.3116455q1.0263672 1.2192764 2.0537567 1.3964767q1.017334 0.16525269 1.7109222 -0.4180298q0.70555115 -0.59334564 0.7128601 -1.5794373q0.00920105 -1.00811 -0.986969 -2.1915207q-1.0968018 -1.302948 -2.1122284 -1.4902039q-1.0154419 -0.18726349 -1.7568665 0.43624878q-0.71751404 0.60339355 -0.7027893 1.5913925q0.014709473 0.98799133 1.0813141 2.2550735zm2.420105 -9.486923l-1.0364227 -1.2312241l1.0762634 -0.90509033l1.0364227 1.2312241l-1.0762634 0.90509033zm6.339264 7.5308075l-5.343094 -6.347389l1.0762634 -0.90509796l5.343109 6.347389l-1.0762787 0.90509796zm0.6901398 -3.8264694l0.9234314 -1.0623932q0.6270752 0.57510376 1.3254852 0.579834q0.70028687 -0.017280579 1.4297485 -0.6307297q0.74142456 -0.62351227 0.8486328 -1.2240524q0.09712219 -0.6124878 -0.24499512 -1.0189133q-0.30186462 -0.35861206 -0.7939148 -0.31230927q-0.34796143 0.04763794 -1.4020538 0.5666046q-1.4354401 0.6967621 -2.0829468 0.8738022q-0.64559937 0.1550293 -1.2067719 -0.026351929q-0.5492096 -0.1914444 -0.94163513 -0.65763855q-0.36224365 -0.43032837 -0.47277832 -0.94984436q-0.11053467 -0.519516 0.02305603 -1.0401764q0.09013367 -0.40244293 0.42001343 -0.88401794q0.33177185 -0.5035858 0.82206726 -0.9159088q0.75338745 -0.6335602 1.4965668 -0.8910599q0.74316406 -0.25749207 1.3181915 -0.108177185q0.5769043 0.1273117 1.2077789 0.65839386l-0.93159485 1.0284195q-0.48431396 -0.42975616 -1.0625458 -0.4130478q-0.5782318 0.016708374 -1.2000732 0.53964996q-0.74142456 0.62350464 -0.8529968 1.1460648q-0.10966492 0.5005417 0.16201782 0.82328796q0.18112183 0.21517181 0.453537 0.27189636q0.27241516 0.056732178 0.64808655 -0.055038452q0.21772766 -0.08102417 1.1881104 -0.5295944q1.387619 -0.6565323 2.013092 -0.8354721q0.61543274 -0.19089508 1.178482 -0.03151703q0.57502747 0.14931488 1.0378876 0.69918823q0.45280457 0.53791046 0.5324249 1.28759q0.08151245 0.72766113 -0.29504395 1.4934692q-0.3645935 0.75575256 -1.1060181 1.3792648q-1.2436829 1.0458908 -2.3221283 1.0749359q-1.0784302 0.029052734 -2.1131134 -0.83615875zm10.205887 -1.1718445l-7.3958282 -8.785934l0.9806061 -0.824646l0.69429016 0.8248062q-0.06575012 -0.7817459 0.16349792 -1.3828506q0.2412262 -0.6111679 0.8630676 -1.1341095q0.8131714 -0.68385315 1.7872009 -0.78842163q0.9740143 -0.10456085 1.9289246 0.39900208q0.9568176 0.48155212 1.7215424 1.3900299q0.825119 0.9801941 1.1204224 2.0588837q0.30725098 1.0686264 -0.010238647 2.0501785q-0.305542 0.97148895 -1.0469666 1.5950012q-0.5381317 0.45254517 -1.1598206 0.5874634q-0.60972595 0.12486267 -1.17659 0.009506226l2.6061554 3.0960007l-1.0762634 0.90509033zm-3.730484 -6.396942q1.0364227 1.2312241 2.0197754 1.4046326q0.99531555 0.16335297 1.7008667 -0.42998505q0.71751404 -0.60339355 0.7185364 -1.6454697q0.0010375977 -1.0420685 -1.065567 -2.3091507q-1.0263519 -1.2192764 -2.0317383 -1.3945847q-1.0154266 -0.18725586 -1.7090149 0.3960266q-0.6816406 0.5732269 -0.67640686 1.6712723q0.017196655 1.0879898 1.0435486 2.3072586zm11.961639 -6.037361q-0.16523743 1.0168304 -0.5342102 1.694603q-0.37902832 0.66581726 -1.0128326 1.1988144q-1.0523376 0.8849869 -2.0470734 0.84363556q-0.99472046 -0.04134369 -1.658844 -0.8302841q-0.39242554 -0.46619415 -0.49917603 -1.0297318q-0.11680603 -0.57549286 0.026855469 -1.0841904q0.14553833 -0.53071594 0.47543335 -1.012291q0.2524414 -0.35520172 0.8258667 -0.9599228q1.1726532 -1.2515717 1.6133728 -1.9896774q-0.19117737 -0.22711945 -0.2414856 -0.28688812q-0.5534363 -0.65745544 -1.073761 -0.6690216q-0.730484 -0.018577576 -1.5436707 0.66526794q-0.7533722 0.6335678 -0.8926544 1.220253q-0.13739014 0.564682 0.25868225 1.3748779l-1.1730957 0.741539q-0.4199829 -0.79008484 -0.4492798 -1.4799881q-0.017349243 -0.69996643 0.42337036 -1.4380722q0.4306488 -0.75006866 1.2438354 -1.4339142q0.8131714 -0.68384933 1.4764252 -0.9149666q0.6752167 -0.2411766 1.1558838 -0.15542221q0.4806671 0.08575821 0.9486389 0.44758987q0.29122925 0.22465134 0.8949585 0.9418678l1.207489 1.4344406q1.2678528 1.5061569 1.6596985 1.8503494q0.4038086 0.33412933 0.91903687 0.53372955l-1.1240997 0.9453201q-0.4491577 -0.19390869 -0.879364 -0.6079178zm-2.1062317 -2.3322906q-0.38471985 0.7318497 -1.4157867 1.8847427q-0.58917236 0.6587982 -0.7635956 1.0096359q-0.17442322 0.3508377 -0.12863159 0.7206497q0.047683716 0.3478012 0.27911377 0.62273407q0.36224365 0.43032837 0.9266205 0.44568634q0.5763397 0.0053100586 1.1981812 -0.51763916q0.62184143 -0.5229416 0.87879944 -1.1881866q0.25886536 -0.68725586 0.08358765 -1.3564758q-0.12249756 -0.50946045 -0.72624207 -1.226677l-0.3320465 -0.3944702zm6.971878 -2.0657654l0.9604492 0.8255615q-0.37391663 0.47777557 -0.732666 0.77948q-0.585968 0.49276733 -1.0597839 0.58499146q-0.48388672 0.08026886 -0.86698914 -0.1079483q-0.39315796 -0.20017242 -1.2082062 -1.1684189l-3.0690155 -3.6458626l-0.78926086 0.66373444l-0.70436096 -0.83675385l0.78926086 -0.66373825l-1.3282318 -1.5778809l0.53289795 -1.5505905l1.8715973 2.2233772l1.0762634 -0.90509415l0.70436096 0.83675766l-1.0762634 0.90509415l3.1193237 3.705635q0.3924408 0.46618652 0.5509491 0.557457q0.17048645 0.081207275 0.37246704 0.054260254q0.19190979 -0.038902283 0.43107605 -0.24003601q0.17938232 -0.15084839 0.4261322 -0.44002533zm4.0488586 -5.7323074l1.1850586 -0.75159454q0.7362976 1.2386322 0.5420227 2.4636192q-0.18231201 1.2149277 -1.2226868 2.0898552q-1.303482 1.0961685 -2.8191223 0.9212494q-1.5137482 -0.19692612 -2.8520508 -1.7867622q-0.86535645 -1.0280151 -1.1745148 -2.0746307q-0.30725098 -1.0686302 0.06434631 -2.0344315q0.38356018 -0.9758568 1.1967316 -1.6597061q1.04039 -0.8749237 2.140854 -0.9020767q1.0903931 -0.03910446 2.0848236 0.7782936l-0.9095764 1.0303192q-0.6887665 -0.5028076 -1.3431244 -0.5037422q-0.642395 -0.0109939575 -1.1805267 0.4415512q-0.8131714 0.68384933 -0.8343353 1.7020111q-0.01927185 0.9961548 1.047348 2.2632408q1.0766602 1.2790413 2.0600128 1.4524498q0.9732971 0.16145325 1.762558 -0.5022812q0.6338043 -0.53300095 0.7303467 -1.267498q0.09844971 -0.7565079 -0.47816467 -1.6598663zm3.9472656 0.6615677l-7.375702 -8.762028l1.0762634 -0.90509415l2.646408 3.1438103q0.018829346 -1.5061836 1.1668396 -2.4716187q0.70555115 -0.593338 1.4512024 -0.75083923q0.7575989 -0.16755676 1.3854218 0.14152527q0.63975525 0.29902267 1.4246216 1.231411l3.3910065 4.0283813l-1.0762634 0.90509415l-3.3910065 -4.0283813q-0.6741791 -0.8008957 -1.332901 -0.87981796q-0.6587372 -0.07892227 -1.3044891 0.46413422q-0.47833252 0.40226364 -0.6855774 1.0052719q-0.20724487 0.6030083 -0.024368286 1.1841888q0.17280579 0.5692253 0.7966614 1.3103523l2.9281464 3.4785156l-1.0762634 0.90509415z" fill-rule="nonzero"/>
<path fill="#000000" fill-opacity="0.0" d="m171.43642 242.622l55.18109 43.559067l-20.629913 26.141724l-55.181107 -43.55905z" fill-rule="evenodd"/>
<path fill="#000000" d="m169.12614 270.5196q-1.0294342 0.04336548 -1.7678223 -0.18118286q-0.728714 -0.2368164 -1.3787231 -0.74993896q-1.0792542 -0.8519287 -1.2394562 -1.8343811q-0.16021729 -0.9824524 0.4786377 -1.7919922q0.37750244 -0.47836304 0.90800476 -0.69659424q0.54019165 -0.23049927 1.0675049 -0.19247437q0.5492554 0.03543091 1.0875549 0.26132202q0.39889526 0.17553711 1.1069946 0.61505127q1.4626312 0.8957825 2.2746124 1.1784363q0.18391418 -0.23306274 0.23231506 -0.29437256q0.53237915 -0.6746216 0.4387207 -1.1864929q-0.12919617 -0.7190857 -0.9631653 -1.3774109q-0.7726593 -0.6099243 -1.375473 -0.6279297q-0.58088684 -0.020599365 -1.2946472 0.5307617l-0.96310425 -0.9991455q0.68922424 -0.5707092 1.3591461 -0.73861694q0.68218994 -0.15823364 1.4941711 0.124420166q0.8216553 0.27038574 1.6556244 0.92871094q0.8339844 0.6583252 1.1942139 1.2612q0.3724823 0.6125183 0.38546753 1.1005249q0.012969971 0.4880066 -0.24705505 1.0192871q-0.16130066 0.33050537 -0.7420807 1.0664673l-1.1615448 1.4718628q-1.2196198 1.5455017 -1.4777222 1.9986572q-0.24584961 0.4628601 -0.3374176 1.0076904l-1.1528473 -0.9100647q0.09933472 -0.4789734 0.41809082 -0.98379517zm1.8597412 -2.5331726q-0.7945404 -0.22906494 -2.131958 -1.0061035q-0.76423645 -0.44403076 -1.1431122 -0.54403687q-0.37887573 -0.1000061 -0.7319031 0.019439697q-0.3310852 0.116882324 -0.55371094 0.39898682q-0.34846497 0.44155884 -0.24963379 0.997345q0.111083984 0.5654602 0.7488251 1.0688782q0.63775635 0.50341797 1.3412781 0.6208191q0.72546387 0.11483765 1.3456726 -0.19186401q0.47434998 -0.2227478 1.0551147 -0.9586792l0.3194275 -0.40478516zm1.3400269 3.2077026l1.2270355 0.6899109q-0.43684387 0.73013306 -0.30056763 1.4150085q0.15823364 0.6822815 0.9063568 1.2728271q0.760376 0.60025024 1.3703003 0.5840454q0.6195984 -0.0284729 0.94869995 -0.44552612q0.29039 -0.36795044 0.14575195 -0.8404541q-0.116867065 -0.33114624 -0.8379364 -1.2586365q-0.9721832 -1.2651062 -1.2762604 -1.8634644q-0.282135 -0.60092163 -0.21766663 -1.1870422q0.07672119 -0.57644653 0.45422363 -1.0548096q0.34846497 -0.44155884 0.835083 -0.65463257q0.48661804 -0.21307373 1.0236053 -0.1873169q0.41241455 0.0070495605 0.95072937 0.23291016q0.56025696 0.22329712 1.0630951 0.62023926q0.7726593 0.6099243 1.1748505 1.2857056q0.40219116 0.67581177 0.37193298 1.269043q-0.008300781 0.5906372 -0.40126038 1.3155823l-1.1954193 -0.70477295q0.3232727 -0.5609741 0.19024658 -1.1238403q-0.13304138 -0.5628662 -0.7707825 -1.0662842q-0.76039124 -0.60025024 -1.2947998 -0.60406494q-0.51246643 -0.0064086914 -0.7738037 0.32476807q-0.17424011 0.22079468 -0.17485046 0.49899292q-5.950928E-4 0.27822876 0.18467712 0.62353516q0.123306274 0.1968689 0.75852966 1.0566101q0.92311096 1.2263794 1.2246094 1.8027954q0.3111725 0.56411743 0.2686615 1.1476746q-0.030258179 0.5932312 -0.47550964 1.1574402q-0.4355774 0.5519409 -1.1539001 0.78118896q-0.6963806 0.22665405 -1.5225372 0.012420654q-0.8139038 -0.20452881 -1.574295 -0.80477905q-1.2754974 -1.0068359 -1.5215454 -2.0570374q-0.24604797 -1.0502319 0.39274597 -2.238037zm3.1484375 9.731323l0.700119 -1.1394043q0.27822876 0.37890625 0.5480499 0.5918884q0.36791992 0.2904358 0.6854706 0.34204102q0.31756592 0.051605225 0.6389618 -0.053009033q0.22395325 -0.08200073 0.9796753 -0.5603943q0.104537964 -0.05682373 0.31105042 -0.19241333l2.6844025 -8.471283l1.1896362 0.9390869l-1.6225433 4.8305054q-0.3012848 0.936676 -0.7122803 1.886261q0.7841034 -0.6152649 1.625 -1.125946l4.3768616 -2.696106l1.1037903 0.8713074l-7.704361 4.6678467q-1.2442474 0.7695923 -1.7844391 1.0000916q-0.72024536 0.30734253 -1.3037109 0.26480103q-0.5834656 -0.042541504 -1.1108246 -0.4588318q-0.31887817 -0.25170898 -0.6048584 -0.69644165zm8.312698 2.481079l5.139847 -6.513092l0.9934082 0.7841797l-0.7259674 0.9199219q1.5534515 -0.5055847 2.914795 0.56903076q0.5886841 0.46469116 0.91470337 1.0604553q0.3260193 0.59576416 0.3002777 1.132843q-0.025741577 0.53704834 -0.30513 1.092865q-0.18066406 0.3550415 -0.78079224 1.1155396l-3.165207 4.0108643l-1.1037903 -0.8713074l3.1264954 -3.9618225q0.5323639 -0.6746216 0.6588135 -1.1122742q0.14837646 -0.44024658 -0.027877808 -0.8978882q-0.16400146 -0.44796753 -0.6055298 -0.7965088q-0.71131897 -0.5614929 -1.5845642 -0.5142822q-0.8513031 0.0446167 -1.838623 1.2957153l-2.8070679 3.5570679l-1.1037903 -0.8713074zm13.115509 6.4713745l0.9753723 1.0088196q-1.0648041 0.97094727 -2.3040009 1.0278931q-1.2269287 0.06661987 -2.29393 -0.77563477q-1.3368073 -1.0552673 -1.4712677 -2.574768q-0.11251831 -1.5220947 1.1748505 -3.1534424q0.83244324 -1.0548401 1.7953339 -1.5687561q0.984848 -0.5165405 2.0059204 -0.34750366q1.0333405 0.17868042 1.8673096 0.8370056q1.0670013 0.84228516 1.3156433 1.9144287q0.25831604 1.059906 -0.34176636 2.198639l-1.1928253 -0.6828308q0.35357666 -0.77593994 0.22245789 -1.4169006q-0.11883545 -0.6312866 -0.6707306 -1.0669556q-0.8339844 -0.6583252 -1.8356476 -0.4736023q-0.97972107 0.18215942 -2.0057526 1.4822998q-1.0357056 1.312439 -1.0071716 2.3103943q0.038223267 0.98568726 0.8476715 1.6246338q0.65000916 0.51312256 1.3890076 0.45944214q0.76094055 -0.05621338 1.5295258 -0.8031616z" fill-rule="nonzero"/>
</g>
</svg>
